<?xml version="1.0" standalone="no"?>
<!DOCTYPE svg PUBLIC "-//W3C//DTD SVG 20010904//EN"
 "http://www.w3.org/TR/2001/REC-SVG-20010904/DTD/svg10.dtd">
<svg version="1.0" xmlns="http://www.w3.org/2000/svg"
 width="564.000000pt" height="564.000000pt" viewBox="0 0 564.000000 564.000000"
 preserveAspectRatio="xMidYMid meet">
<metadata>
Created by potrace 1.14, written by Peter Selinger 2001-2017
</metadata>
<g transform="translate(0.000000,564.000000) scale(0.100000,-0.100000)"
fill="#000000" stroke="none">
<path d="M346 5583 c-23 -82 -142 -563 -161 -653 -8 -41 -18 -112 -22 -157 -5
-70 -3 -92 16 -149 l23 -66 -21 -86 c-45 -187 -61 -402 -61 -829 l0 -283 -60
0 -60 0 0 -275 0 -274 42 19 c32 14 44 16 50 7 6 -9 8 -9 8 1 0 9 60 12 265
12 l265 0 0 33 c0 17 0 311 0 651 0 456 4 623 12 634 9 10 8 16 -3 23 -10 7
-3 8 21 3 19 -3 37 -9 40 -13 3 -3 14 -6 25 -7 11 -1 74 -16 140 -34 66 -18
143 -38 170 -45 263 -69 317 -84 322 -89 4 -4 1 -12 -5 -18 -7 -7 -12 -20 -12
-31 0 -10 -4 -16 -9 -12 -5 3 -13 0 -17 -6 -4 -8 -3 -9 4 -5 7 4 12 2 12 -5 0
-14 -33 -112 -40 -119 -12 -11 -11 -173 1 -227 16 -71 83 -165 151 -213 26
-18 45 -37 41 -43 -4 -6 0 -8 11 -4 10 4 15 3 11 -3 -3 -6 3 -10 14 -10 12 0
21 -4 21 -10 0 -5 7 -10 15 -10 8 0 15 -3 15 -8 0 -4 14 -13 30 -20 17 -8 36
-19 43 -26 6 -6 49 -35 95 -65 45 -29 82 -57 82 -60 0 -4 -5 -12 -12 -19 -9
-9 -8 -12 6 -12 9 0 14 5 11 10 -3 6 -3 10 0 10 8 0 49 -21 55 -29 6 -7 91
-66 248 -172 63 -43 125 -86 137 -98 13 -11 37 -26 52 -34 15 -8 40 -27 56
-41 15 -14 30 -25 32 -25 3 0 15 -8 28 -17 116 -84 199 -140 237 -159 57 -29
160 -61 226 -70 100 -13 294 30 362 81 17 14 37 22 42 19 6 -4 9 -2 8 3 -4 12
59 82 73 82 6 0 8 4 5 8 -3 5 2 18 12 28 9 10 25 32 35 47 11 16 23 25 30 21
7 -4 9 -4 5 1 -4 4 4 22 17 40 14 17 25 37 25 43 0 7 3 12 8 12 4 1 23 24 42
52 19 28 47 65 63 83 15 18 27 36 27 39 0 16 64 85 73 79 6 -3 7 -1 3 5 -9 14
193 294 207 285 5 -3 7 -1 4 4 -4 6 9 33 28 59 19 27 43 60 52 74 42 60 106
145 112 150 4 3 17 22 30 43 13 20 27 34 33 31 6 -4 8 -2 5 3 -5 9 90 155 112
173 4 3 21 34 38 70 36 72 58 176 48 227 -4 23 -2 33 7 33 8 0 9 3 3 8 -16 10
-49 128 -42 146 4 11 1 13 -10 9 -11 -4 -14 -2 -9 5 4 7 3 12 -1 12 -11 0 -49
71 -45 84 2 6 0 8 -4 4 -4 -4 -21 5 -39 20 -18 15 -64 50 -103 77 -55 39 -70
54 -67 70 3 11 2 14 -1 8 -3 -7 -9 -13 -14 -13 -15 0 -205 152 -202 162 1 5
-1 7 -6 4 -10 -6 -92 51 -92 65 0 5 -6 9 -13 9 -7 0 -30 16 -51 35 -21 19 -40
35 -42 35 -7 0 -218 154 -236 172 -10 10 -21 18 -26 18 -4 0 -25 16 -47 35
-22 19 -42 35 -45 35 -3 0 -11 4 -19 9 -10 7 -11 13 -1 31 10 18 14 20 21 9 5
-8 9 -9 9 -3 0 6 6 11 13 12 36 3 68 9 74 15 10 11 25 8 18 -3 -3 -5 -1 -10 5
-10 7 0 9 8 5 21 -5 15 -4 19 4 15 6 -4 11 0 11 10 0 16 -2 15 -22 -3 -13 -11
-33 -23 -45 -26 -18 -4 -23 -1 -24 16 -1 17 -2 18 -6 5 -3 -11 -13 -18 -26
-17 -17 1 -18 2 -4 6 20 5 20 8 7 34 -12 21 -1 26 18 7 9 -9 12 -9 12 0 0 7 7
12 15 12 8 0 15 -5 15 -11 0 -5 -4 -7 -10 -4 -6 4 -7 -1 -3 -11 6 -16 8 -15
16 4 9 20 17 22 96 22 91 0 245 -15 261 -25 6 -4 8 -11 4 -16 -3 -6 -12 -5
-22 3 -10 7 -14 8 -9 3 4 -4 0 -17 -10 -27 -9 -10 -12 -18 -7 -19 5 0 0 -4
-11 -9 -17 -7 -18 -9 -2 -9 9 -1 22 10 29 24 6 13 15 22 20 19 9 -6 40 21 32
28 -3 3 7 3 21 1 14 -3 25 -8 25 -12 0 -3 15 -6 33 -7 48 -2 86 -11 250 -61 9
-3 17 -10 17 -15 0 -5 4 -7 9 -4 19 12 42 -6 36 -28 -5 -18 -5 -19 5 -3 6 9
16 17 21 17 6 0 7 -5 3 -12 -4 -7 -3 -8 5 -4 6 4 48 -11 94 -32 340 -164 611
-476 692 -796 42 -166 46 -226 45 -763 -1 -282 2 -518 6 -524 5 -9 2 -10 -9
-6 -21 8 -22 -6 -2 -23 16 -13 21 -90 6 -90 -5 0 -11 -9 -14 -19 -4 -15 -1
-18 12 -13 14 5 14 4 1 -13 -9 -11 -10 -16 -3 -11 10 5 13 -6 13 -43 l0 -51
78 -1 c42 -1 89 0 105 1 17 1 27 -4 27 -12 0 -11 2 -11 9 0 6 11 44 13 172 9
90 -2 174 -7 187 -11 l22 -8 0 266 0 266 -39 0 c-25 0 -41 5 -45 15 -3 8 -3
117 1 242 11 416 -26 807 -95 1018 -85 257 -226 482 -431 685 -131 131 -198
185 -329 264 l-91 56 -1080 0 -1079 0 5 -127 5 -128 -80 -255 c-44 -140 -99
-320 -122 -400 -23 -80 -57 -176 -75 -215 -55 -118 -136 -175 -259 -182 -76
-4 -69 -6 -601 130 -137 35 -302 76 -365 92 -135 33 -167 45 -209 81 -71 59
-122 216 -101 311 21 92 120 488 145 578 13 50 25 96 25 103 0 9 -52 12 -228
12 l-229 0 -17 -57z m2926 -210 c-6 -2 -10 -9 -6 -14 3 -5 0 -9 -5 -9 -6 0
-11 7 -11 15 0 8 8 15 18 14 10 0 12 -3 4 -6z m-37 -23 c-8 -24 14 -58 25 -40
5 8 9 7 13 -4 10 -25 -9 -27 -37 -5 -22 17 -24 24 -15 42 10 21 9 21 -5 3 -13
-16 -18 -17 -31 -6 -21 17 -10 30 26 30 26 0 29 -3 24 -20z m50 -20 c3 -6 -1
-7 -9 -4 -18 7 -21 14 -7 14 6 0 13 -4 16 -10z m-399 -345 c63 -22 109 -53
407 -271 59 -43 121 -88 137 -99 70 -49 397 -286 416 -303 57 -49 78 -113 63
-198 -8 -48 -19 -72 -54 -115 -76 -94 -177 -228 -320 -424 -319 -439 -453
-612 -492 -636 -30 -19 -51 -24 -104 -23 -73 1 -109 17 -226 103 -34 25 -90
65 -125 89 -121 84 -504 347 -558 385 -30 21 -83 56 -117 78 -34 22 -84 59
-110 83 -46 42 -47 45 -46 97 0 53 15 122 31 146 6 10 19 9 57 -3 84 -25 216
-36 287 -24 152 27 297 137 362 274 31 65 181 504 212 621 7 28 30 96 51 153
30 79 41 101 53 95 8 -3 42 -16 76 -28z"/>
<path d="M3060 4491 c-86 -28 -151 -83 -192 -161 -18 -36 -23 -60 -23 -125 0
-95 22 -150 83 -217 87 -95 263 -112 376 -37 59 40 101 100 122 179 15 52 16
71 6 116 -22 106 -72 173 -165 221 -55 28 -159 40 -207 24z"/>
<path d="M2679 3944 c-50 -9 -133 -68 -166 -117 -41 -61 -53 -104 -53 -188 0
-147 116 -261 281 -276 129 -12 270 81 304 201 41 142 -18 291 -138 353 -51
25 -162 38 -228 27z"/>
<path d="M1857 5376 c-4 -10 -1 -13 9 -9 15 6 19 23 5 23 -5 0 -11 -7 -14 -14z"/>
<path d="M1498 5343 c7 -3 16 -2 19 1 4 3 -2 6 -13 5 -11 0 -14 -3 -6 -6z"/>
<path d="M3568 5338 c15 -15 52 -21 52 -9 0 14 -28 21 -34 8 -3 -9 -5 -9 -5 1
-1 6 -6 12 -13 12 -9 0 -9 -3 0 -12z"/>
<path d="M1630 5325 c-8 -9 -8 -15 -2 -15 12 0 26 19 19 26 -2 2 -10 -2 -17
-11z"/>
<path d="M1520 5319 c0 -5 5 -7 10 -4 6 3 10 8 10 11 0 2 -4 4 -10 4 -5 0 -10
-5 -10 -11z"/>
<path d="M3510 5322 c0 -5 7 -9 15 -9 8 0 15 4 15 9 0 4 -7 8 -15 8 -8 0 -15
-4 -15 -8z"/>
<path d="M3854 5323 c4 -4 16 -8 28 -10 28 -4 18 6 -12 12 -12 2 -20 1 -16 -2z"/>
<path d="M2010 5310 c-9 -6 -10 -10 -3 -10 6 0 15 5 18 10 8 12 4 12 -15 0z"/>
<path d="M3468 5306 c12 -7 20 -15 16 -19 -4 -3 -15 -2 -26 4 -11 6 -22 8 -26
5 -3 -3 0 -6 7 -6 7 0 3 -9 -10 -19 -20 -17 -22 -22 -10 -33 12 -11 13 -11 6
1 -5 9 -4 12 3 7 7 -4 12 -14 12 -22 0 -8 6 -13 13 -11 6 1 11 -6 9 -15 -2
-12 2 -16 13 -12 20 8 19 13 -7 37 -16 14 -19 21 -10 24 10 4 10 8 1 19 -17
21 4 17 28 -6 17 -16 22 -17 27 -5 3 8 0 14 -6 12 -6 -1 -13 4 -16 12 -3 10 0
12 14 8 18 -7 18 -6 2 6 -10 8 -16 16 -14 18 3 2 -8 5 -22 6 -27 1 -27 1 -4
-11z"/>
<path d="M3665 5310 c-3 -6 1 -7 9 -4 18 7 21 14 7 14 -6 0 -13 -4 -16 -10z"/>
<path d="M3342 5295 c-18 -8 -35 -14 -38 -14 -3 0 -8 -2 -11 -5 -4 -3 1 -6 11
-6 9 0 19 -7 23 -15 5 -14 8 -14 26 2 20 17 20 17 13 -1 -6 -17 -5 -17 11 -5
9 8 14 9 10 2 -4 -6 -3 -14 3 -18 6 -4 7 -12 4 -18 -4 -7 -4 -9 1 -5 14 13 14
67 0 61 -8 -2 -15 4 -17 15 -3 19 -5 20 -36 7z"/>
<path d="M2025 5280 c-3 -5 -1 -10 4 -10 6 0 11 5 11 10 0 6 -2 10 -4 10 -3 0
-8 -4 -11 -10z"/>
<path d="M3592 5259 c-12 -19 -11 -19 8 -9 11 6 18 15 15 21 -8 12 -8 12 -23
-12z"/>
<path d="M3694 5268 c-4 -7 -3 -10 1 -5 5 4 18 -1 29 -10 21 -18 21 -18 2 5
-22 26 -23 26 -32 10z"/>
<path d="M3829 5272 c7 -5 11 -14 7 -20 -3 -6 -2 -13 2 -16 5 -3 9 4 8 16 0
12 -8 23 -16 25 -12 4 -13 3 -1 -5z"/>
<path d="M2015 5250 c-3 -6 1 -7 9 -4 18 7 21 14 7 14 -6 0 -13 -4 -16 -10z"/>
<path d="M2061 5243 c7 -12 15 -20 18 -17 3 2 -3 12 -13 22 -17 16 -18 16 -5
-5z"/>
<path d="M4010 5226 c0 -2 8 -10 18 -17 15 -13 16 -12 3 4 -13 16 -21 21 -21
13z"/>
<path d="M3406 5202 c-3 -6 -1 -14 5 -17 15 -10 25 3 12 16 -7 7 -13 7 -17 1z"/>
<path d="M3756 5196 c3 -9 13 -16 22 -16 8 0 13 1 11 3 -2 1 -12 9 -22 16 -15
12 -17 12 -11 -3z"/>
<path d="M3510 5190 c0 -5 5 -10 11 -10 5 0 7 5 4 10 -3 6 -8 10 -11 10 -2 0
-4 -4 -4 -10z"/>
<path d="M1580 5180 c-8 -5 -12 -12 -9 -15 4 -3 12 1 19 10 14 17 11 19 -10 5z"/>
<path d="M4153 5177 c0 -8 6 -14 14 -14 9 0 10 4 2 14 -6 7 -12 13 -14 13 -1
0 -2 -6 -2 -13z"/>
<path d="M4250 5180 c0 -5 5 -10 11 -10 5 0 7 5 4 10 -3 6 -8 10 -11 10 -2 0
-4 -4 -4 -10z"/>
<path d="M2075 5170 c-3 -6 1 -7 9 -4 18 7 21 14 7 14 -6 0 -13 -4 -16 -10z"/>
<path d="M3440 5170 c0 -6 7 -10 15 -10 8 0 15 2 15 4 0 2 -7 6 -15 10 -8 3
-15 1 -15 -4z"/>
<path d="M3484 5169 c-3 -6 -2 -15 3 -20 5 -5 9 -1 9 11 0 23 -2 24 -12 9z"/>
<path d="M1905 5140 c3 -5 8 -10 11 -10 2 0 4 5 4 10 0 6 -5 10 -11 10 -5 0
-7 -4 -4 -10z"/>
<path d="M2089 5113 c-13 -17 -13 -17 6 -3 11 8 22 16 24 17 2 2 0 3 -6 3 -6
0 -17 -8 -24 -17z"/>
<path d="M1659 5103 c-13 -16 -12 -17 4 -4 9 7 17 15 17 17 0 8 -8 3 -21 -13z"/>
<path d="M4261 5113 c-1 -18 13 -23 29 -11 12 8 12 9 -2 5 -9 -3 -19 -1 -22 6
-3 9 -5 9 -5 0z"/>
<path d="M1941 5033 c-1 -18 13 -23 29 -11 12 8 12 9 -2 5 -9 -3 -19 -1 -22 6
-3 9 -5 9 -5 0z"/>
<path d="M3725 4950 c3 -5 11 -10 16 -10 6 0 7 5 4 10 -3 6 -11 10 -16 10 -6
0 -7 -4 -4 -10z"/>
<path d="M4316 4857 c3 -10 9 -15 12 -12 3 3 0 11 -7 18 -10 9 -11 8 -5 -6z"/>
<path d="M1690 4850 c-9 -6 -10 -10 -3 -10 6 0 15 5 18 10 8 12 4 12 -15 0z"/>
<path d="M3959 4783 c-13 -16 -12 -17 4 -4 9 7 17 15 17 17 0 8 -8 3 -21 -13z"/>
<path d="M4015 4770 c-7 -12 18 -40 37 -40 7 0 2 7 -10 16 -12 8 -20 20 -17
25 4 5 4 9 1 9 -3 0 -8 -5 -11 -10z"/>
<path d="M4220 4770 c-9 -6 -10 -10 -3 -10 6 0 15 5 18 10 8 12 4 12 -15 0z"/>
<path d="M4543 4773 c4 -3 2 -12 -4 -19 -8 -9 -5 -11 11 -7 16 4 18 8 9 19 -6
8 -14 14 -17 14 -3 0 -2 -3 1 -7z"/>
<path d="M4438 4683 c7 -3 16 -2 19 1 4 3 -2 6 -13 5 -11 0 -14 -3 -6 -6z"/>
<path d="M4615 4651 c3 -6 -3 -14 -12 -20 -10 -6 -16 -11 -13 -11 39 -9 53 -9
41 -1 -16 11 3 25 22 16 6 -4 3 1 -7 9 -22 18 -41 21 -31 7z"/>
<path d="M4757 4395 c-4 -8 -3 -16 1 -19 4 -3 9 4 9 15 2 23 -3 25 -10 4z"/>
<path d="M4620 4391 c0 -6 4 -13 10 -16 6 -3 7 1 4 9 -7 18 -14 21 -14 7z"/>
<path d="M4565 4090 c-3 -5 1 -10 10 -10 9 0 13 5 10 10 -3 6 -8 10 -10 10 -2
0 -7 -4 -10 -10z"/>
<path d="M800 4046 c0 -2 7 -7 16 -10 8 -3 12 -2 9 4 -6 10 -25 14 -25 6z"/>
<path d="M1117 4019 c7 -7 15 -10 18 -7 3 3 -2 9 -12 12 -14 6 -15 5 -6 -5z"/>
<path d="M1236 4013 c-4 -10 -4 -14 0 -10 4 4 13 -1 21 -11 13 -15 13 -15 4 4
-6 12 -7 24 -4 28 3 3 2 6 -4 6 -6 0 -14 -8 -17 -17z"/>
<path d="M1109 3905 c-1 -3 -2 -8 -3 -12 -1 -5 -5 -15 -10 -23 -7 -12 -6 -13
4 -3 13 12 23 43 14 43 -2 0 -5 -2 -5 -5z"/>
<path d="M1216 3872 c-2 -4 -1 -14 4 -22 7 -11 9 -9 7 8 -1 24 -3 26 -11 14z"/>
<path d="M1203 3795 c0 -8 2 -13 5 -10 3 2 14 -1 26 -7 20 -10 20 -10 -1 11
-26 25 -30 26 -30 6z"/>
<path d="M4945 3740 c3 -5 11 -10 16 -10 6 0 7 5 4 10 -3 6 -11 10 -16 10 -6
0 -7 -4 -4 -10z"/>
<path d="M4630 3716 c0 -2 8 -10 18 -17 15 -13 16 -12 3 4 -13 16 -21 21 -21
13z"/>
<path d="M880 3681 c0 -6 4 -13 10 -16 6 -3 7 1 4 9 -7 18 -14 21 -14 7z"/>
<path d="M4185 3620 c-4 -6 -11 -7 -17 -4 -7 4 -8 2 -4 -4 10 -16 23 -15 30 3
6 17 0 20 -9 5z"/>
<path d="M980 3611 c0 -6 4 -13 10 -16 6 -3 7 1 4 9 -7 18 -14 21 -14 7z"/>
<path d="M4460 3576 c0 -2 7 -7 16 -10 8 -3 12 -2 9 4 -6 10 -25 14 -25 6z"/>
<path d="M4116 3498 c3 -5 10 -6 15 -3 13 9 11 12 -6 12 -8 0 -12 -4 -9 -9z"/>
<path d="M4367 3499 c7 -7 15 -10 18 -7 3 3 -2 9 -12 12 -14 6 -15 5 -6 -5z"/>
<path d="M4140 3481 c0 -9 30 -24 36 -18 2 1 -6 8 -16 15 -11 7 -20 8 -20 3z"/>
<path d="M4035 3460 c-3 -5 -1 -10 4 -10 6 0 11 5 11 10 0 6 -2 10 -4 10 -3 0
-8 -4 -11 -10z"/>
<path d="M4009 3423 c-13 -16 -12 -17 4 -4 16 13 21 21 13 21 -2 0 -10 -8 -17
-17z"/>
<path d="M4110 3399 c0 -5 5 -7 10 -4 6 3 10 8 10 11 0 2 -4 4 -10 4 -5 0 -10
-5 -10 -11z"/>
<path d="M4250 3296 c0 -2 7 -7 16 -10 8 -3 12 -2 9 4 -6 10 -25 14 -25 6z"/>
<path d="M3855 3250 c-10 -11 -16 -22 -14 -24 2 -2 12 7 22 20 22 29 17 32 -8
4z"/>
<path d="M4926 3257 c3 -10 9 -15 12 -12 3 3 0 11 -7 18 -10 9 -11 8 -5 -6z"/>
<path d="M1496 3238 c3 -5 10 -6 15 -3 13 9 11 12 -6 12 -8 0 -12 -4 -9 -9z"/>
<path d="M3865 3210 c4 -6 11 -8 16 -5 14 9 11 15 -7 15 -8 0 -12 -5 -9 -10z"/>
<path d="M1642 3184 c-7 -8 -8 -14 -3 -14 10 0 25 19 20 25 -2 1 -10 -3 -17
-11z"/>
<path d="M3906 3192 c-3 -5 1 -9 9 -9 8 0 12 4 9 9 -3 4 -7 8 -9 8 -2 0 -6 -4
-9 -8z"/>
<path d="M1385 3181 c-3 -5 -2 -12 3 -15 5 -3 9 1 9 9 0 17 -3 19 -12 6z"/>
<path d="M3790 3177 c0 -3 12 -12 26 -22 15 -9 23 -12 20 -6 -7 11 -46 35 -46
28z"/>
<path d="M3773 3153 c4 -3 1 -13 -6 -22 -11 -14 -10 -14 5 -2 16 12 16 31 1
31 -4 0 -3 -3 0 -7z"/>
<path d="M3797 3137 c-4 -10 -2 -17 3 -17 6 0 10 -5 10 -11 0 -5 -4 -8 -9 -4
-5 3 -12 -4 -16 -15 -3 -11 -11 -20 -16 -20 -6 0 -8 4 -4 9 3 5 1 12 -5 16 -5
3 -10 -1 -10 -9 0 -23 22 -31 35 -13 15 21 26 22 19 2 -4 -10 0 -15 10 -15 14
0 15 4 6 20 -8 16 -8 20 4 20 8 0 18 4 21 10 3 6 -1 7 -9 4 -11 -4 -19 2 -24
17 -7 19 -10 20 -15 6z"/>
<path d="M3874 3103 c-16 -12 -16 -13 -1 -13 9 0 17 4 17 10 0 5 6 7 14 4 8
-3 16 -2 19 3 8 14 -30 10 -49 -4z"/>
<path d="M3845 3069 c4 -21 1 -25 -20 -25 -14 0 -25 3 -25 8 0 4 -7 5 -15 1
-23 -8 -13 -13 38 -18 37 -4 45 -2 43 11 0 9 6 19 14 21 12 4 12 2 2 -5 -10
-7 -10 -11 3 -22 16 -13 20 -5 15 29 -1 13 1 13 17 1 17 -13 17 -13 2 4 -13
14 -21 16 -36 7 -14 -7 -23 -7 -31 1 -8 8 -10 5 -7 -13z"/>
<path d="M1647 3059 c4 -13 8 -18 11 -10 2 7 -1 18 -6 23 -8 8 -9 4 -5 -13z"/>
<path d="M1547 3053 c3 -7 6 -13 8 -13 2 0 5 6 8 13 3 8 -1 14 -8 14 -7 0 -11
-6 -8 -14z"/>
<path d="M3715 3044 c12 -19 12 -24 -5 -39 -14 -13 -20 -14 -20 -5 0 7 -2 11
-5 8 -3 -3 8 -26 25 -51 31 -46 37 -63 20 -52 -6 4 -7 -1 -3 -11 5 -13 2 -16
-8 -12 -10 4 -14 -3 -15 -26 -3 -64 -7 -76 -26 -70 -10 3 -18 1 -18 -5 0 -6 6
-11 14 -11 9 0 13 -9 12 -25 -2 -13 0 -22 4 -20 4 3 10 -9 14 -26 9 -49 38
-102 68 -127 16 -13 28 -31 28 -40 0 -12 3 -13 8 -5 6 9 16 7 40 -7 38 -23
154 -28 197 -8 22 10 28 9 36 -3 8 -11 9 -10 7 6 -2 14 2 20 14 19 10 -1 16 1
15 5 -1 3 11 20 27 36 47 50 71 111 70 186 -2 117 -58 195 -177 243 -31 13
-53 26 -49 31 4 4 -3 3 -15 -4 -12 -6 -38 -11 -57 -11 -20 0 -36 -4 -36 -10 0
-5 -7 -10 -16 -10 -9 0 -12 5 -8 12 4 7 3 8 -4 4 -7 -4 -12 -4 -12 1 0 4 -15
9 -33 10 -55 4 -71 9 -75 23 -3 8 0 10 8 5 8 -5 11 -4 6 3 -3 6 -15 10 -26 9
-18 -1 -18 -3 -5 -23z m50 -44 c-4 -6 -13 -9 -20 -6 -7 2 -16 -2 -19 -11 -5
-11 -2 -14 10 -9 11 4 15 2 11 -8 -4 -10 -1 -13 9 -9 7 3 15 9 15 14 1 5 3 14
4 19 1 6 3 14 4 18 1 11 61 3 61 -8 0 -13 -30 -33 -37 -26 -4 4 -1 11 7 16 10
6 11 10 3 10 -15 0 -35 -35 -25 -45 4 -5 1 -5 -6 -1 -9 5 -15 1 -19 -13 -7
-29 -20 -26 -36 7 -16 30 -12 51 12 69 18 13 37 1 26 -17z"/>
<path d="M3956 3057 c3 -10 9 -15 12 -12 3 3 0 11 -7 18 -10 9 -11 8 -5 -6z"/>
<path d="M4930 3060 c0 -5 5 -10 11 -10 5 0 7 5 4 10 -3 6 -8 10 -11 10 -2 0
-4 -4 -4 -10z"/>
<path d="M1727 3053 c-3 -5 5 -13 17 -19 18 -8 23 -8 23 3 0 7 -3 11 -5 8 -3
-3 -11 0 -18 6 -7 5 -14 6 -17 2z"/>
<path d="M1694 3038 c3 -10 0 -20 -6 -24 -7 -4 -8 -3 -4 4 4 7 3 12 -3 12 -5
0 -12 -6 -14 -12 -4 -10 -8 -10 -15 0 -7 11 -10 11 -15 -2 -4 -9 -11 -16 -17
-16 -6 0 -8 6 -4 13 4 6 -6 1 -21 -13 -96 -84 -126 -133 -132 -215 -7 -84 9
-140 57 -196 54 -64 115 -91 199 -90 109 2 175 38 227 126 23 40 28 44 43 33
14 -11 14 -11 4 3 -7 9 -12 48 -12 99 0 53 -4 86 -11 90 -7 4 -9 16 -6 28 4
11 2 23 -3 27 -7 4 -9 -1 -5 -12 3 -10 -8 -2 -25 17 -17 19 -31 38 -31 41 0 3
-12 11 -26 17 -15 7 -22 17 -18 24 4 7 3 8 -5 4 -6 -4 -23 -1 -36 8 -13 9 -30
13 -38 10 -8 -3 -18 -1 -21 5 -4 6 -13 8 -22 4 -8 -3 -22 3 -30 13 -13 16 -15
17 -10 2z"/>
<path d="M1780 3040 c0 -6 7 -10 15 -10 8 0 15 2 15 4 0 2 -7 6 -15 10 -8 3
-15 1 -15 -4z"/>
<path d="M4018 3033 c7 -3 16 -2 19 1 4 3 -2 6 -13 5 -11 0 -14 -3 -6 -6z"/>
<path d="M4987 3009 c6 -23 9 -24 16 -5 3 8 0 17 -7 19 -10 4 -12 -1 -9 -14z"/>
<path d="M1460 3005 c0 -8 4 -15 10 -15 5 0 7 7 4 15 -4 8 -8 15 -10 15 -2 0
-4 -7 -4 -15z"/>
<path d="M4304 3012 c4 -3 14 -7 22 -8 9 -1 13 0 10 4 -4 3 -14 7 -22 8 -9 1
-13 0 -10 -4z"/>
<path d="M4540 2980 c0 -5 5 -10 11 -10 5 0 7 5 4 10 -3 6 -8 10 -11 10 -2 0
-4 -4 -4 -10z"/>
<path d="M3621 2967 c-6 -8 -8 -17 -4 -20 3 -4 1 -7 -5 -7 -7 0 -12 -4 -12
-10 0 -5 6 -10 14 -10 8 0 13 8 11 18 -4 29 6 34 28 15 l22 -18 -19 23 c-23
26 -21 26 -35 9z"/>
<path d="M4915 2970 c3 -5 8 -10 11 -10 2 0 4 5 4 10 0 6 -5 10 -11 10 -5 0
-7 -4 -4 -10z"/>
<path d="M3670 2966 c0 -2 7 -9 15 -16 9 -7 15 -8 15 -2 0 5 -7 12 -15 16 -8
3 -15 4 -15 2z"/>
<path d="M1975 2920 c3 -5 8 -10 11 -10 2 0 4 5 4 10 0 6 -5 10 -11 10 -5 0
-7 -4 -4 -10z"/>
<path d="M667 2909 c7 -7 15 -10 18 -7 3 3 -2 9 -12 12 -14 6 -15 5 -6 -5z"/>
<path d="M3607 2904 c-3 -4 -2 -15 4 -25 8 -16 6 -21 -11 -27 -21 -8 -21 -9
-3 -22 10 -8 15 -11 11 -6 -7 9 13 36 23 30 3 -2 6 3 6 11 0 8 -7 17 -14 19
-8 3 -11 10 -8 16 7 11 2 14 -8 4z"/>
<path d="M3666 2875 c4 -8 10 -12 15 -9 11 6 2 24 -11 24 -5 0 -7 -7 -4 -15z"/>
<path d="M1405 2870 c3 -5 8 -10 11 -10 2 0 4 5 4 10 0 6 -5 10 -11 10 -5 0
-7 -4 -4 -10z"/>
<path d="M1980 2871 c0 -6 4 -13 10 -16 6 -3 7 1 4 9 -7 18 -14 21 -14 7z"/>
<path d="M4480 2866 c0 -2 7 -6 15 -10 8 -3 15 -1 15 4 0 6 -7 10 -15 10 -8 0
-15 -2 -15 -4z"/>
<path d="M3680 2850 c-9 -6 -10 -10 -3 -10 6 0 15 5 18 10 8 12 4 12 -15 0z"/>
<path d="M2000 2800 c0 -5 5 -10 11 -10 5 0 7 5 4 10 -3 6 -8 10 -11 10 -2 0
-4 -4 -4 -10z"/>
<path d="M3603 2796 c-15 -18 -2 -38 17 -26 10 6 11 10 3 10 -7 0 -10 7 -7 15
7 18 3 19 -13 1z"/>
<path d="M4865 2799 c-10 -15 3 -25 16 -12 7 7 7 13 1 17 -6 3 -14 1 -17 -5z"/>
<path d="M3520 2790 c0 -6 -4 -9 -9 -6 -5 3 -14 -1 -21 -9 -10 -12 -9 -16 4
-21 9 -4 20 -4 23 0 4 3 1 6 -5 6 -7 0 -12 4 -12 9 0 6 9 8 20 6 21 -4 27 9
10 20 -5 3 -10 1 -10 -5z"/>
<path d="M140 2760 c-9 -6 -10 -10 -3 -10 6 0 15 5 18 10 8 12 4 12 -15 0z"/>
<path d="M3639 2743 c-12 -16 -12 -17 2 -6 9 7 20 9 24 5 5 -4 5 -1 1 6 -9 16
-11 15 -27 -5z"/>
<path d="M3511 2729 c-16 -13 -19 -19 -8 -19 8 0 17 7 20 15 4 8 15 12 28 10
12 -2 19 -1 15 2 -13 13 -32 10 -55 -8z"/>
<path d="M5190 2720 c0 -5 5 -10 11 -10 5 0 7 5 4 10 -3 6 -8 10 -11 10 -2 0
-4 -4 -4 -10z"/>
<path d="M3540 2710 c0 -5 5 -10 11 -10 5 0 7 5 4 10 -3 6 -8 10 -11 10 -2 0
-4 -4 -4 -10z"/>
<path d="M290 2685 c0 -8 4 -15 10 -15 5 0 7 7 4 15 -4 8 -8 15 -10 15 -2 0
-4 -7 -4 -15z"/>
<path d="M3451 2683 c0 -11 3 -13 6 -5 2 6 10 9 15 6 7 -4 8 -2 4 4 -11 18
-26 14 -25 -5z"/>
<path d="M3590 2690 c0 -5 5 -10 11 -10 5 0 7 5 4 10 -3 6 -8 10 -11 10 -2 0
-4 -4 -4 -10z"/>
<path d="M51 2671 c-8 -5 -22 -8 -31 -6 -13 2 -17 -4 -17 -31 0 -20 5 -34 13
-34 8 0 11 10 8 30 -4 23 -2 29 9 24 8 -2 20 2 27 11 14 17 12 19 -9 6z"/>
<path d="M3632 2675 c4 -4 0 -13 -8 -20 -15 -11 -15 -12 -1 -12 20 0 30 24 14
33 -7 4 -9 4 -5 -1z"/>
<path d="M5355 2660 c3 -5 8 -10 11 -10 2 0 4 5 4 10 0 6 -5 10 -11 10 -5 0
-7 -4 -4 -10z"/>
<path d="M5180 2640 c-9 -6 -10 -10 -3 -10 6 0 15 5 18 10 8 12 4 12 -15 0z"/>
<path d="M3676 2627 c-16 -12 -16 -13 2 -14 10 -1 19 5 19 13 0 17 1 17 -21 1z"/>
<path d="M141 2584 c0 -11 3 -14 6 -6 3 7 2 16 -1 19 -3 4 -6 -2 -5 -13z"/>
<path d="M0 2576 c0 -20 17 -30 23 -14 3 7 4 3 4 -9 -1 -12 -4 -20 -8 -17 -16
9 -19 -41 -19 -292 l0 -264 38 0 c20 0 54 -3 74 -6 l37 -6 3 -377 c5 -424 6
-430 82 -586 97 -196 239 -320 450 -391 67 -23 81 -24 362 -24 178 0 303 -4
320 -10 33 -13 51 -29 273 -234 196 -182 265 -231 389 -276 124 -45 258 -52
906 -47 514 4 545 5 629 26 161 39 242 93 482 322 98 93 174 160 215 189 l35
25 330 6 c271 4 337 8 372 21 233 91 418 290 483 522 26 92 30 156 38 531 l7
300 55 5 55 5 3 259 c2 229 1 257 -13 246 -8 -7 -22 -10 -30 -6 -8 3 -15 1
-15 -5 0 -6 -6 -9 -12 -6 -7 2 -12 10 -10 16 1 7 -2 10 -8 6 -6 -3 -8 -10 -5
-15 3 -4 -31 -8 -74 -8 -66 0 -81 3 -84 16 -4 15 -5 15 -6 0 -1 -16 -13 -18
-111 -18 -81 0 -110 3 -110 13 0 9 -3 8 -9 -2 -6 -9 -22 -12 -50 -9 -22 2 -41
0 -41 -4 0 -4 -7 -5 -15 -2 -17 7 -16 49 -15 -568 0 -277 -3 -358 -13 -358 -9
0 -9 -2 0 -8 16 -10 12 -184 -4 -204 -11 -13 -13 -18 -13 -39 0 -5 -4 -7 -10
-4 -5 3 -8 0 -5 -7 9 -24 -68 -111 -130 -147 -55 -31 -67 -34 -145 -35 -47 0
-105 3 -130 7 -25 4 -133 7 -240 7 -210 1 -246 -5 -322 -55 -21 -14 -39 -25
-41 -25 -14 0 -427 -408 -427 -422 0 -4 -7 -8 -15 -8 -8 0 -15 -4 -15 -9 0 -5
-17 -17 -37 -27 -35 -17 -70 -19 -411 -22 -300 -2 -372 0 -366 10 6 10 5 10
-7 1 -19 -16 -469 -18 -469 -2 0 5 -5 7 -12 3 -8 -5 -9 -2 -5 10 6 14 3 17 -9
12 -15 -6 -15 -4 -3 11 12 15 12 16 -3 10 -9 -3 -19 -1 -22 6 -3 7 -3 2 -1 -9
4 -13 0 -24 -9 -27 -18 -7 -26 1 -27 27 0 19 -1 19 -8 3 -6 -16 -14 -10 -56
38 -28 31 -78 86 -112 122 -58 60 -82 91 -50 65 8 -7 18 -8 27 -1 12 8 11 9
-5 7 -11 -2 -19 2 -18 8 1 7 -6 10 -18 7 -22 -6 -59 22 -59 45 0 9 -3 13 -6 9
-3 -3 -16 4 -28 17 -88 92 -231 185 -295 192 -13 2 -32 11 -42 20 -10 9 -19
12 -19 6 0 -6 6 -13 13 -15 8 -4 6 -6 -4 -6 -9 -1 -21 9 -27 22 -10 19 -11 19
-9 3 2 -16 -5 -20 -37 -22 -22 -2 -48 2 -59 7 -14 8 -18 8 -12 0 4 -8 -16 -11
-72 -11 -43 0 -106 -2 -140 -4 -55 -5 -61 -3 -57 12 2 9 -1 7 -7 -6 -14 -25
-36 -24 -31 2 2 9 -2 16 -8 16 -6 0 -8 -5 -4 -12 5 -8 2 -9 -11 -4 -15 6 -16
4 -4 -10 11 -14 10 -16 -11 -12 -14 1 -31 10 -38 18 -12 13 -13 13 -9 -1 4
-12 -1 -16 -16 -15 -12 1 -21 7 -20 13 2 7 -9 10 -29 8 -17 -3 -40 1 -52 7
-44 24 -116 105 -143 163 l-28 60 -2 340 c-2 257 1 341 10 347 9 6 9 8 0 8
-10 0 -13 49 -13 209 0 124 -4 212 -10 216 -5 3 -78 6 -161 6 -83 1 -164 5
-179 9 -18 5 -32 4 -39 -3 -8 -8 -11 -8 -11 1 0 6 7 15 16 20 11 6 13 11 5 16
-6 4 -11 2 -11 -4 0 -6 -5 -8 -12 -4 -6 4 -8 3 -5 -2 3 -6 2 -16 -3 -24 -7
-12 -15 -13 -39 -3 -22 8 -31 8 -34 -1 -3 -8 -10 -8 -26 2 -12 7 -21 8 -21 2
0 -5 -4 -10 -10 -10 -5 0 -10 4 -10 9 0 14 42 25 49 12 4 -6 11 -3 19 9 10 17
9 18 -6 14 -16 -5 -16 -5 1 9 9 8 17 17 17 19 0 11 -38 15 -51 7 -11 -7 -10
-9 4 -9 24 0 21 -19 -5 -29 -35 -13 -68 7 -68 40 0 18 -7 32 -20 39 -16 8 -20
8 -20 -4z m50 -91 c11 -13 10 -14 -4 -9 -9 3 -16 10 -16 15 0 13 6 11 20 -6z
m2150 -1945 c0 -5 -7 -7 -15 -4 -8 4 -15 8 -15 10 0 2 7 4 15 4 8 0 15 -4 15
-10z"/>
<path d="M5220 2586 c0 -2 8 -10 18 -17 15 -13 16 -12 3 4 -13 16 -21 21 -21
13z"/>
<path d="M251 2564 c0 -11 3 -14 6 -6 3 7 2 16 -1 19 -3 4 -6 -2 -5 -13z"/>
<path d="M340 2570 c0 -5 7 -7 15 -4 8 4 15 8 15 10 0 2 -7 4 -15 4 -8 0 -15
-4 -15 -10z"/>
<path d="M50 2560 c0 -5 5 -10 11 -10 5 0 7 5 4 10 -3 6 -8 10 -11 10 -2 0 -4
-4 -4 -10z"/>
<path d="M229 2563 c-1 -5 -1 -17 0 -28 0 -11 -2 -14 -5 -7 -3 6 -10 9 -16 6
-14 -9 11 -24 28 -17 10 4 11 10 4 23 -5 9 -6 20 -3 24 3 3 3 6 0 6 -4 0 -8
-3 -8 -7z"/>
<path d="M5380 2555 c-10 -12 -10 -15 2 -15 8 0 15 7 15 15 0 8 -1 15 -2 15
-2 0 -8 -7 -15 -15z"/>
<path d="M5530 2560 c0 -5 5 -10 11 -10 5 0 7 5 4 10 -3 6 -8 10 -11 10 -2 0
-4 -4 -4 -10z"/>
<path d="M3590 2530 c-9 -6 -10 -10 -3 -10 6 0 15 5 18 10 8 12 4 12 -15 0z"/>
<path d="M273 2522 c-8 -5 -9 -13 -3 -22 6 -8 10 -11 10 -6 0 5 8 2 18 -5 16
-13 16 -13 -1 7 -9 11 -14 24 -10 27 9 9 1 9 -14 -1z"/>
<path d="M310 2520 c-9 -6 -10 -10 -3 -10 6 0 15 5 18 10 8 12 4 12 -15 0z"/>
<path d="M5290 2512 c0 -4 9 -8 19 -8 11 0 17 4 15 8 -3 4 -12 8 -20 8 -8 0
-14 -4 -14 -8z"/>
<path d="M5385 2510 c-3 -5 -1 -10 4 -10 6 0 11 5 11 10 0 6 -2 10 -4 10 -3 0
-8 -4 -11 -10z"/>
<path d="M194 2495 c3 -21 16 -31 16 -12 0 9 -4 18 -9 21 -5 4 -8 -1 -7 -9z"/>
<path d="M4890 2506 c0 -2 7 -7 16 -10 8 -3 12 -2 9 4 -6 10 -25 14 -25 6z"/>
<path d="M5254 2484 c-18 -14 -18 -15 4 -4 12 6 22 13 22 15 0 8 -5 6 -26 -11z"/>
<path d="M5420 2491 c0 -5 7 -12 16 -15 14 -5 15 -4 4 9 -14 17 -20 19 -20 6z"/>
<path d="M5506 2491 c-4 -7 -5 -15 -2 -18 9 -9 19 4 14 18 -4 11 -6 11 -12 0z"/>
<path d="M340 2486 c0 -2 7 -7 16 -10 8 -3 12 -2 9 4 -6 10 -25 14 -25 6z"/>
<path d="M3887 2469 c7 -7 15 -10 18 -7 3 3 -2 9 -12 12 -14 6 -15 5 -6 -5z"/>
<path d="M4066 2457 c-16 -12 -16 -13 2 -13 10 0 19 6 19 13 0 7 -1 13 -2 13
-1 0 -9 -6 -19 -13z"/>
<path d="M1695 2450 c-3 -6 1 -7 9 -4 18 7 21 14 7 14 -6 0 -13 -4 -16 -10z"/>
<path d="M3878 2433 c7 -3 16 -2 19 1 4 3 -2 6 -13 5 -11 0 -14 -3 -6 -6z"/>
<path d="M3020 2400 c0 -5 5 -10 11 -10 5 0 7 5 4 10 -3 6 -8 10 -11 10 -2 0
-4 -4 -4 -10z"/>
<path d="M4235 2400 c3 -5 8 -10 11 -10 2 0 4 5 4 10 0 6 -5 10 -11 10 -5 0
-7 -4 -4 -10z"/>
<path d="M2915 2361 c-3 -5 -2 -12 3 -15 5 -3 9 1 9 9 0 17 -3 19 -12 6z"/>
<path d="M3388 2353 c7 -3 16 -2 19 1 4 3 -2 6 -13 5 -11 0 -14 -3 -6 -6z"/>
<path d="M3460 2340 c0 -5 5 -10 11 -10 5 0 7 5 4 10 -3 6 -8 10 -11 10 -2 0
-4 -4 -4 -10z"/>
<path d="M4200 2321 c0 -5 7 -12 16 -15 14 -5 15 -4 4 9 -14 17 -20 19 -20 6z"/>
<path d="M4883 2323 c-15 -5 -17 -23 -4 -23 5 0 11 7 15 15 3 8 4 15 3 14 -1
0 -8 -3 -14 -6z"/>
<path d="M4983 2296 c-3 -6 -3 -8 2 -4 4 4 13 3 20 -2 8 -7 12 -5 12 3 0 16
-25 18 -34 3z"/>
<path d="M4900 2291 c0 -5 7 -15 17 -22 15 -13 15 -12 4 9 -12 23 -21 28 -21
13z"/>
<path d="M5004 2245 c0 -13 3 -22 7 -19 8 4 6 30 -2 38 -3 3 -5 -5 -5 -19z"/>
<path d="M4923 2225 c0 -7 6 -11 14 -8 7 3 13 6 13 8 0 2 -6 5 -13 8 -8 3 -14
-1 -14 -8z"/>
<path d="M1966 2188 c3 -5 10 -6 15 -3 13 9 11 12 -6 12 -8 0 -12 -4 -9 -9z"/>
<path d="M4156 2187 c3 -10 9 -15 12 -12 3 3 0 11 -7 18 -10 9 -11 8 -5 -6z"/>
<path d="M3683 2165 c0 -8 4 -12 9 -9 5 3 6 10 3 15 -9 13 -12 11 -12 -6z"/>
<path d="M4820 2120 c0 -5 5 -10 11 -10 5 0 7 -5 3 -12 -4 -7 -3 -8 5 -4 9 6
9 11 0 22 -14 17 -19 18 -19 4z"/>
<path d="M2620 2070 c0 -5 5 -10 11 -10 5 0 7 5 4 10 -3 6 -8 10 -11 10 -2 0
-4 -4 -4 -10z"/>
<path d="M4870 2050 c0 -5 5 -10 11 -10 5 0 7 5 4 10 -3 6 -8 10 -11 10 -2 0
-4 -4 -4 -10z"/>
<path d="M4860 2026 c0 -2 7 -7 16 -10 8 -3 12 -2 9 4 -6 10 -25 14 -25 6z"/>
<path d="M3675 1990 c-3 -5 -1 -10 4 -10 6 0 11 5 11 10 0 6 -2 10 -4 10 -3 0
-8 -4 -11 -10z"/>
<path d="M4920 1989 c0 -5 -6 -7 -12 -3 -10 5 -10 4 -1 -6 6 -7 16 -9 22 -6
14 9 14 26 1 26 -5 0 -10 -5 -10 -11z"/>
<path d="M4976 1964 c-5 -14 -4 -15 9 -4 17 14 19 20 6 20 -5 0 -12 -7 -15
-16z"/>
<path d="M4905 1910 c-3 -5 -1 -10 4 -10 6 0 11 5 11 10 0 6 -2 10 -4 10 -3 0
-8 -4 -11 -10z"/>
<path d="M4933 1875 c0 -8 4 -12 9 -9 5 3 6 10 3 15 -9 13 -12 11 -12 -6z"/>
<path d="M4190 1870 c0 -5 5 -10 11 -10 5 0 7 5 4 10 -3 6 -8 10 -11 10 -2 0
-4 -4 -4 -10z"/>
<path d="M4950 1856 c0 -2 8 -10 18 -17 15 -13 16 -12 3 4 -13 16 -21 21 -21
13z"/>
<path d="M4880 1836 c0 -2 7 -6 15 -10 8 -3 15 -1 15 4 0 6 -7 10 -15 10 -8 0
-15 -2 -15 -4z"/>
<path d="M3560 1810 c0 -5 5 -10 11 -10 5 0 7 5 4 10 -3 6 -8 10 -11 10 -2 0
-4 -4 -4 -10z"/>
<path d="M4990 1809 c0 -5 5 -7 10 -4 6 3 10 8 10 11 0 2 -4 4 -10 4 -5 0 -10
-5 -10 -11z"/>
<path d="M4903 1785 c0 -8 4 -12 9 -9 4 3 8 9 8 15 0 5 -4 9 -8 9 -5 0 -9 -7
-9 -15z"/>
<path d="M3385 1781 c-3 -5 -2 -12 3 -15 5 -3 9 1 9 9 0 17 -3 19 -12 6z"/>
<path d="M4849 1773 c-13 -16 -12 -17 4 -4 16 13 21 21 13 21 -2 0 -10 -8 -17
-17z"/>
<path d="M4969 1773 c-13 -16 -12 -17 4 -4 16 13 21 21 13 21 -2 0 -10 -8 -17
-17z"/>
<path d="M1226 1771 c-4 -5 -2 -12 3 -15 5 -4 12 -2 15 3 4 5 2 12 -3 15 -5 4
-12 2 -15 -3z"/>
<path d="M5000 1771 c0 -6 4 -13 10 -16 6 -3 7 1 4 9 -7 18 -14 21 -14 7z"/>
<path d="M4856 1752 c-3 -5 1 -9 9 -9 8 0 12 4 9 9 -3 4 -7 8 -9 8 -2 0 -6 -4
-9 -8z"/>
<path d="M4951 1743 c7 -10 15 -20 16 -22 2 -2 3 3 3 11 0 9 -7 19 -16 22 -15
6 -15 4 -3 -11z"/>
<path d="M3261 1690 c-18 -23 -37 -37 -43 -34 -6 4 -8 3 -5 -3 8 -12 -99 -82
-163 -107 -121 -48 -246 -65 -342 -47 -77 14 -208 60 -208 72 0 5 -3 8 -7 7
-13 -4 -55 23 -126 80 -37 30 -69 53 -71 51 -2 -2 -15 -78 -30 -169 -42 -273
-41 -255 -15 -279 12 -11 27 -21 31 -21 5 0 6 -5 2 -12 -4 -7 -3 -8 5 -4 6 4
23 -1 39 -12 32 -22 118 -62 183 -86 83 -30 182 -46 290 -46 149 0 257 21 392
77 32 13 63 21 69 17 6 -4 8 -3 5 3 -4 6 16 25 44 44 51 35 63 57 63 116 0 18
5 32 11 32 23 -3 33 2 39 17 5 13 3 14 -6 7 -22 -16 -43 -9 -46 16 -2 13 2 28
10 32 10 7 9 9 -4 9 -14 0 -17 7 -15 34 2 29 4 32 17 23 8 -6 4 1 -9 15 -12
15 -20 31 -16 37 3 6 2 11 -3 11 -5 0 -17 36 -26 80 -10 44 -21 80 -25 80 -4
0 -22 -18 -40 -40z"/>
<path d="M4950 1690 c0 -6 7 -10 15 -10 8 0 15 2 15 4 0 2 -7 6 -15 10 -8 3
-15 1 -15 -4z"/>
<path d="M4420 1660 c-9 -6 -10 -10 -3 -10 6 0 15 5 18 10 8 12 4 12 -15 0z"/>
<path d="M3530 1649 c0 -5 5 -7 10 -4 6 3 10 8 10 11 0 2 -4 4 -10 4 -5 0 -10
-5 -10 -11z"/>
<path d="M4910 1650 c0 -5 5 -10 11 -10 5 0 7 5 4 10 -3 6 -8 10 -11 10 -2 0
-4 -4 -4 -10z"/>
<path d="M1946 1633 c-6 -14 -5 -15 5 -6 7 7 10 15 7 18 -3 3 -9 -2 -12 -12z"/>
<path d="M4954 1619 c0 -13 3 -15 13 -7 7 6 13 12 13 13 0 2 -6 5 -13 8 -7 3
-13 -3 -13 -14z"/>
<path d="M2521 1614 c0 -11 3 -14 6 -6 3 7 2 16 -1 19 -3 4 -6 -2 -5 -13z"/>
<path d="M3450 1619 c0 -5 5 -7 10 -4 6 3 10 8 10 11 0 2 -4 4 -10 4 -5 0 -10
-5 -10 -11z"/>
<path d="M4914 1616 c1 -8 5 -18 8 -22 4 -3 5 1 4 10 -1 8 -5 18 -8 22 -4 3
-5 -1 -4 -10z"/>
<path d="M4645 1590 c3 -5 8 -10 11 -10 2 0 4 5 4 10 0 6 -5 10 -11 10 -5 0
-7 -4 -4 -10z"/>
<path d="M4860 1575 c0 -2 6 -8 13 -14 10 -8 14 -7 14 2 0 8 -6 14 -14 14 -7
0 -13 -1 -13 -2z"/>
<path d="M3428 1513 c7 -3 16 -2 19 1 4 3 -2 6 -13 5 -11 0 -14 -3 -6 -6z"/>
<path d="M4983 1505 c0 -8 4 -12 9 -9 5 3 6 10 3 15 -9 13 -12 11 -12 -6z"/>
<path d="M3650 1496 c0 -2 7 -7 16 -10 8 -3 12 -2 9 4 -6 10 -25 14 -25 6z"/>
<path d="M3370 1482 c0 -5 7 -9 15 -9 8 0 12 4 9 9 -3 4 -9 8 -15 8 -5 0 -9
-4 -9 -8z"/>
<path d="M1281 1434 c0 -11 3 -14 6 -6 3 7 2 16 -1 19 -3 4 -6 -2 -5 -13z"/>
<path d="M4990 1431 c0 -6 4 -13 10 -16 6 -3 7 1 4 9 -7 18 -14 21 -14 7z"/>
<path d="M3448 1373 c7 -3 16 -2 19 1 4 3 -2 6 -13 5 -11 0 -14 -3 -6 -6z"/>
<path d="M4780 1370 c-8 -5 -10 -10 -5 -10 6 0 17 5 25 10 8 5 11 10 5 10 -5
0 -17 -5 -25 -10z"/>
<path d="M1730 1335 c0 -5 5 -17 10 -25 5 -8 10 -10 10 -5 0 6 -5 17 -10 25
-5 8 -10 11 -10 5z"/>
<path d="M4275 1320 c-3 -6 1 -7 9 -4 18 7 21 14 7 14 -6 0 -13 -4 -16 -10z"/>
<path d="M1130 1290 c-6 -11 -8 -20 -6 -20 3 0 10 9 16 20 6 11 8 20 6 20 -3
0 -10 -9 -16 -20z"/>
<path d="M1178 1273 c7 -3 16 -2 19 1 4 3 -2 6 -13 5 -11 0 -14 -3 -6 -6z"/>
<path d="M1417 1249 c7 -7 15 -10 18 -7 3 3 -2 9 -12 12 -14 6 -15 5 -6 -5z"/>
<path d="M4906 1248 c3 -4 11 -5 19 -1 21 7 19 12 -4 10 -11 0 -18 -5 -15 -9z"/>
<path d="M4721 1234 c0 -11 3 -14 6 -6 3 7 2 16 -1 19 -3 4 -6 -2 -5 -13z"/>
<path d="M4867 1202 c-3 -9 -8 -26 -12 -37 -6 -16 -5 -17 4 -5 10 13 12 13 21
0 8 -13 10 -12 10 3 0 9 -4 17 -10 17 -5 0 -7 7 -4 15 4 8 10 13 14 10 5 -3
11 -2 14 3 2 4 -4 8 -14 9 -10 1 -20 -6 -23 -15z"/>
<path d="M1070 1189 c0 -5 5 -7 10 -4 6 3 10 8 10 11 0 2 -4 4 -10 4 -5 0 -10
-5 -10 -11z"/>
<path d="M1177 1179 c4 -13 8 -18 11 -10 2 7 -1 18 -6 23 -8 8 -9 4 -5 -13z"/>
<path d="M3319 1173 c-13 -16 -12 -17 4 -4 16 13 21 21 13 21 -2 0 -10 -8 -17
-17z"/>
<path d="M1247 1145 c-4 -8 -3 -16 1 -19 4 -3 9 4 9 15 2 23 -3 25 -10 4z"/>
<path d="M846 1135 c10 -8 23 -15 28 -15 6 0 1 7 -10 15 -10 8 -23 15 -28 15
-6 0 -1 -7 10 -15z"/>
<path d="M1094 1139 c-3 -6 -2 -15 3 -20 5 -5 9 -1 9 11 0 23 -2 24 -12 9z"/>
<path d="M1130 1146 c0 -2 8 -10 18 -17 15 -13 16 -12 3 4 -13 16 -21 21 -21
13z"/>
<path d="M1285 1130 c3 -5 8 -10 11 -10 2 0 4 5 4 10 0 6 -5 10 -11 10 -5 0
-7 -4 -4 -10z"/>
<path d="M4485 1129 c-4 -6 -4 -13 -1 -16 3 -4 6 -1 6 6 0 8 6 11 16 7 8 -3
12 -2 9 4 -8 13 -22 13 -30 -1z"/>
<path d="M4560 1130 c0 -5 7 -10 16 -10 8 0 12 5 9 10 -3 6 -10 10 -16 10 -5
0 -9 -4 -9 -10z"/>
<path d="M1060 1109 c0 -5 5 -7 10 -4 6 3 10 8 10 11 0 2 -4 4 -10 4 -5 0 -10
-5 -10 -11z"/>
<path d="M1610 1079 c0 -5 5 -7 10 -4 6 3 10 8 10 11 0 2 -4 4 -10 4 -5 0 -10
-5 -10 -11z"/>
<path d="M1697 1083 c-3 -5 -1 -17 4 -28 6 -17 7 -16 6 8 -1 28 -3 32 -10 20z"/>
<path d="M1750 1070 c0 -5 5 -10 11 -10 5 0 7 5 4 10 -3 6 -8 10 -11 10 -2 0
-4 -4 -4 -10z"/>
<path d="M1745 1030 c3 -5 8 -10 11 -10 2 0 4 5 4 10 0 6 -5 10 -11 10 -5 0
-7 -4 -4 -10z"/>
<path d="M1796 965 c-9 -26 -7 -32 5 -12 6 10 9 21 6 23 -2 3 -7 -2 -11 -11z"/>
<path d="M2667 639 c7 -7 15 -10 18 -7 3 3 -2 9 -12 12 -14 6 -15 5 -6 -5z"/>
<path d="M3250 646 c0 -2 7 -7 16 -10 8 -3 12 -2 9 4 -6 10 -25 14 -25 6z"/>
<path d="M2278 563 c7 -3 16 -2 19 1 4 3 -2 6 -13 5 -11 0 -14 -3 -6 -6z"/>
</g>
</svg>
